# xmcd CD database file
#
# Track frame offsets:
#	150
#	1631
#	19467
#	35052
#	52259
#	69956
#	83764
#	101145
#	118362
#	136033
#	149835
#	160967
#	175220
#	192717
#	205336
#	223007
#	237405
#	253926
#	269370
#	285313
#	305506
#	318471
#
# Disc length: 4361 seconds
#
# Revision: 0
# Processed by: cddbd v1.4PL0 Copyright (c) Steve Scherf et al.
# Submitted via: CDex 1.50Beta6
#
DISCID=59110716
DTITLE=Gatinha Manhosa (Ao Vivo) - Ao Vivo
DYEAR=1900
DGENRE=Country
TTITLE0=Abertura
TTITLE1=Adeus Nunca Mais
TTITLE2=Só O Amor Me Faz
TTITLE3=Sei Que Vai Ser Assim
TTITLE4=Sai De Mim Tristeza
TTITLE5=Leilão
TTITLE6=Não É O Fim
TTITLE7=Foi Por Amor
TTITLE8=História De Amor
TTITLE9=Mudei
TTITLE10=Doce Mistério
TTITLE11=Solidão
TTITLE12=Sem Amor Não Dá
TTITLE13=Track14
TTITLE14=Você Vai Ver
TTITLE15=Fica Comigo
TTITLE16=Cobertor
TTITLE17=Não Diga Não
TTITLE18=Track19
TTITLE19=Track20
TTITLE20=Fantasias
TTITLE21=Track22
EXTD=
EXTT0=
EXTT1=
EXTT2=
EXTT3=
EXTT4=
EXTT5=
EXTT6=
EXTT7=
EXTT8=
EXTT9=
EXTT10=
EXTT11=
EXTT12=
EXTT13=
EXTT14=
EXTT15=
EXTT16=
EXTT17=
EXTT18=
EXTT19=
EXTT20=
EXTT21=
PLAYORDER=
